<svg width="8" height="6" viewBox="0 0 8 6" fill="none" xmlns="http://www.w3.org/2000/svg">
<path d="M3.34025 5.7013C3.30642 5.66834 3.16175 5.54389 3.04275 5.42796C2.29433 4.74831 1.06933 2.97529 0.695417 2.0473C0.635333 1.90637 0.508167 1.55006 0.5 1.35969C0.5 1.17727 0.542 1.00338 0.627167 0.837443C0.746167 0.630591 0.933417 0.464655 1.1545 0.373732C1.30792 0.315199 1.767 0.224275 1.77517 0.224275C2.27742 0.133352 3.0935 0.0833435 3.99533 0.0833435C4.85458 0.0833435 5.63742 0.133352 6.14725 0.207796C6.15542 0.21632 6.72592 0.307243 6.92133 0.406691C7.27833 0.589107 7.5 0.945415 7.5 1.32673V1.35969C7.49125 1.60802 7.26958 2.13027 7.26142 2.13027C6.88692 3.00825 5.722 4.74035 4.94792 5.43648C4.94792 5.43648 4.749 5.63254 4.62475 5.71778C4.44625 5.85076 4.22517 5.91668 4.00408 5.91668C3.75733 5.91668 3.5275 5.84223 3.34025 5.7013Z" fill="#00102D"/>
</svg>
