<svg width="16" height="18" viewBox="0 0 16 18" fill="none" xmlns="http://www.w3.org/2000/svg">
<path fill-rule="evenodd" clip-rule="evenodd" d="M0.5 13.0583V6.71411H15.5V13.1091C15.5 15.7249 13.8535 17.3333 11.219 17.3333H4.77278C2.16301 17.3333 0.5 15.6916 0.5 13.0583ZM4.63282 11.0083C4.25412 11.0258 3.94127 10.7249 3.92481 10.3424C3.92481 9.95911 4.22119 9.64244 4.59989 9.62494C4.97036 9.62494 5.27497 9.91744 5.28321 10.2916C5.29967 10.6758 5.00329 10.9924 4.63282 11.0083ZM8.01647 11.0083C7.63776 11.0258 7.32492 10.7249 7.30845 10.3424C7.30845 9.95911 7.60483 9.64244 7.98354 9.62494C8.35401 9.62494 8.65862 9.91744 8.66685 10.2916C8.68332 10.6758 8.38694 10.9924 8.01647 11.0083ZM11.3754 14.0749C10.9967 14.0666 10.6921 13.7499 10.6921 13.3666C10.6839 12.9833 10.9885 12.6674 11.3672 12.6591H11.3754C11.7623 12.6591 12.0752 12.9758 12.0752 13.3666C12.0752 13.7583 11.7623 14.0749 11.3754 14.0749ZM7.30845 13.3666C7.32492 13.7499 7.63776 14.0508 8.01647 14.0333C8.38694 14.0174 8.68332 13.7008 8.66685 13.3174C8.65862 12.9424 8.35401 12.6499 7.98354 12.6499C7.60483 12.6674 7.30845 12.9833 7.30845 13.3666ZM3.91658 13.3666C3.93304 13.7499 4.24588 14.0508 4.62459 14.0333C4.99506 14.0174 5.29144 13.7008 5.27497 13.3174C5.26674 12.9424 4.96213 12.6499 4.59166 12.6499C4.21295 12.6674 3.91658 12.9833 3.91658 13.3666ZM10.7003 10.3341C10.7003 9.95078 10.9967 9.64244 11.3754 9.63411C11.7459 9.63411 12.0423 9.93328 12.0587 10.3008C12.067 10.6841 11.7706 11.0008 11.4001 11.0083C11.0214 11.0166 10.7086 10.7249 10.7003 10.3424V10.3341Z" fill="#979797"/>
<path opacity="0.4" d="M0.502686 6.71404C0.513388 6.22487 0.554552 5.25404 0.631939 4.94154C1.02711 3.18404 2.36904 2.06737 4.28726 1.9082H11.7132C13.6149 2.0757 14.9733 3.19987 15.3685 4.94154C15.4451 5.2457 15.4862 6.22404 15.4969 6.71404H0.502686Z" fill="#979797"/>
<path d="M4.92078 4.49163C5.28302 4.49163 5.5547 4.21746 5.5547 3.84996V1.30913C5.5547 0.941626 5.28302 0.666626 4.92078 0.666626C4.55854 0.666626 4.28687 0.941626 4.28687 1.30913V3.84996C4.28687 4.21746 4.55854 4.49163 4.92078 4.49163Z" fill="#979797"/>
<path d="M11.0792 4.49163C11.4332 4.49163 11.7132 4.21746 11.7132 3.84996V1.30913C11.7132 0.941626 11.4332 0.666626 11.0792 0.666626C10.717 0.666626 10.4453 0.941626 10.4453 1.30913V3.84996C10.4453 4.21746 10.717 4.49163 11.0792 4.49163Z" fill="#979797"/>
</svg>
